<svg width="33" height="34" viewBox="0 0 33 34" fill="none" xmlns="http://www.w3.org/2000/svg">
<g id="Convert Icon">
<ellipse id="Ellipse 2292" cx="16.5" cy="17" rx="16.5" ry="16.5" fill="#5C1198"/>
<circle id="Ellipse 2291" cx="17" cy="18" r="13.5" fill="white"/>
<path id="Path 48255" fill-rule="evenodd" clip-rule="evenodd" d="M31.5 18C31.5 20.8678 30.6496 23.6712 29.0563 26.0558C27.463 28.4403 25.1984 30.2988 22.5489 31.3962C19.8994 32.4937 16.9839 32.7809 14.1712 32.2214C11.3585 31.6619 8.77482 30.2809 6.74696 28.253C4.7191 26.2252 3.33811 23.6415 2.77862 20.8288C2.21913 18.0161 2.50628 15.1006 3.60375 12.4511C4.70122 9.80156 6.55972 7.53697 8.94424 5.94369C11.3287 4.35041 14.1322 3.5 17 3.5C20.8456 3.5 24.5338 5.02767 27.253 7.74695C29.9723 10.4662 31.5 14.1544 31.5 18ZM9.75 21.9875L21.35 21.9875L18.5501 24.4307C18.3394 24.6222 18.2121 24.8885 18.1957 25.1727C18.1792 25.4569 18.2748 25.7362 18.4619 25.9507C18.6491 26.1651 18.9128 26.2977 19.1966 26.3199C19.4804 26.342 19.7616 26.2521 19.9798 26.0692L24.9649 21.7192C25.1316 21.5737 25.2499 21.3807 25.3041 21.1661C25.3583 20.9515 25.3457 20.7255 25.268 20.5182C25.1903 20.311 25.0512 20.1324 24.8693 20.0063C24.6874 19.8802 24.4713 19.8126 24.25 19.8125L9.75 19.8125C9.46158 19.8125 9.18497 19.9271 8.98103 20.131C8.77708 20.335 8.6625 20.6116 8.6625 20.9C8.6625 21.1884 8.77708 21.465 8.98103 21.669C9.18497 21.8729 9.46158 21.9875 9.75 21.9875ZM15.55 10.0351C15.7395 10.2525 15.835 10.5361 15.8154 10.8238C15.7959 11.1115 15.6628 11.3796 15.4456 11.5692L12.65 14.0125L24.25 14.0125C24.5384 14.0125 24.815 14.1271 25.019 14.331C25.2229 14.535 25.3375 14.8116 25.3375 15.1C25.3375 15.3884 25.2229 15.665 25.019 15.869C24.815 16.0729 24.5384 16.1875 24.25 16.1875L9.75 16.1875C9.52867 16.1874 9.31262 16.1198 9.13073 15.9937C8.94883 15.8676 8.80975 15.689 8.73205 15.4818C8.65435 15.2745 8.64174 15.0485 8.6959 14.8339C8.75006 14.6193 8.86842 14.4263 9.03515 14.2807L14.0188 9.93075C14.236 9.74212 14.519 9.64719 14.806 9.66676C15.0929 9.68633 15.3605 9.81879 15.55 10.0351Z" fill="#5C1198"/>
</g>
</svg>
