<svg width="21" height="20" viewBox="0 0 21 20" fill="none" xmlns="http://www.w3.org/2000/svg">
<g id="Down Arrow_Icon">
<path id="Icon" d="M3.88382 7.2126C3.88454 7.02548 3.94177 6.84295 4.048 6.68891C4.15423 6.53487 4.30452 6.41652 4.47917 6.34935C4.65399 6.27921 4.84537 6.26114 5.03023 6.29732C5.21509 6.3335 5.38554 6.42239 5.52102 6.55325L10.5815 11.4798L15.642 6.55325C15.8246 6.37779 16.0681 6.27981 16.3214 6.27981C16.5747 6.27981 16.8182 6.37779 17.0008 6.55325C17.0898 6.63867 17.1605 6.74117 17.2088 6.8546C17.2571 6.96803 17.282 7.09005 17.282 7.21335C17.282 7.33664 17.2571 7.45866 17.2088 7.57209C17.1605 7.68552 17.0898 7.78802 17.0008 7.87344L11.2587 13.4489C11.0771 13.6223 10.8356 13.7191 10.5845 13.7191C10.3333 13.7191 10.0919 13.6223 9.91023 13.4489L4.17107 7.87344C4.08104 7.7884 4.00917 7.686 3.9598 7.57242C3.91043 7.45885 3.88458 7.33644 3.88382 7.2126Z" fill="white"/>
</g>
</svg>
