<svg width="30" height="30" viewBox="0 0 30 30" fill="none" xmlns="http://www.w3.org/2000/svg">
<g id="Layer_1" clip-path="url(#clip0_1_80)">
<path id="Vector" d="M0.9375 5.53697H15.9182C16.1337 6.57192 16.6991 7.50106 17.5193 8.16804C18.3394 8.83503 19.3643 9.19916 20.4215 9.19916C21.4786 9.19916 22.5035 8.83503 23.3237 8.16804C24.1439 7.50106 24.7093 6.57192 24.9248 5.53697H29.0625C29.3111 5.53697 29.5496 5.43819 29.7254 5.26238C29.9012 5.08656 30 4.84811 30 4.59947C30 4.35083 29.9012 4.11237 29.7254 3.93655C29.5496 3.76074 29.3111 3.66197 29.0625 3.66197H24.9248C24.7093 2.62701 24.1439 1.69788 23.3237 1.03089C22.5035 0.363899 21.4786 -0.000228882 20.4215 -0.000228882C19.3643 -0.000228882 18.3394 0.363899 17.5193 1.03089C16.6991 1.69788 16.1337 2.62701 15.9182 3.66197H0.9375C0.68886 3.66197 0.450403 3.76074 0.274587 3.93655C0.0987721 4.11237 0 4.35083 0 4.59947C0 4.84811 0.0987721 5.08656 0.274587 5.26238C0.450403 5.43819 0.68886 5.53697 0.9375 5.53697ZM20.4214 1.87486C20.9603 1.87486 21.4871 2.03465 21.9352 2.33404C22.3832 2.63342 22.7324 3.05895 22.9387 3.5568C23.1449 4.05466 23.1988 4.60249 23.0937 5.13101C22.9886 5.65953 22.7291 6.14501 22.348 6.52606C21.967 6.9071 21.4815 7.16659 20.953 7.27172C20.4245 7.37685 19.8766 7.3229 19.3788 7.11668C18.8809 6.91046 18.4554 6.56124 18.156 6.11318C17.8566 5.66512 17.6968 5.13834 17.6968 4.59947C17.6976 3.8771 17.985 3.18456 18.4957 2.67377C19.0065 2.16298 19.6991 1.87566 20.4214 1.87486ZM29.0625 14.0624H14.4957C14.2802 13.0274 13.7148 12.0983 12.8946 11.4313C12.0744 10.7643 11.0495 10.4002 9.99237 10.4002C8.93522 10.4002 7.91033 10.7643 7.09016 11.4313C6.26998 12.0983 5.70457 13.0274 5.48906 14.0624H0.9375C0.68886 14.0624 0.450403 14.1611 0.274587 14.3369C0.0987721 14.5128 0 14.7512 0 14.9999C0 15.2485 0.0987721 15.487 0.274587 15.6628C0.450403 15.8386 0.68886 15.9374 0.9375 15.9374H5.48906C5.70431 16.9725 6.26962 17.9019 7.08982 18.5691C7.91002 19.2363 8.93504 19.6006 9.99234 19.6006C11.0496 19.6006 12.0747 19.2363 12.8949 18.5691C13.7151 17.9019 14.2804 16.9725 14.4956 15.9374H29.0625C29.3111 15.9374 29.5496 15.8386 29.7254 15.6628C29.9012 15.487 30 15.2485 30 14.9999C30 14.7512 29.9012 14.5128 29.7254 14.3369C29.5496 14.1611 29.3111 14.0624 29.0625 14.0624ZM9.99234 17.7245C9.45347 17.7245 8.92669 17.5647 8.47863 17.2653C8.03057 16.9659 7.68135 16.5404 7.47513 16.0425C7.26891 15.5447 7.21496 14.9968 7.32009 14.4683C7.42522 13.9398 7.68471 13.4543 8.06575 13.0733C8.4468 12.6922 8.93228 12.4327 9.4608 12.3276C9.98932 12.2225 10.5371 12.2764 11.035 12.4826C11.5329 12.6889 11.9584 13.0381 12.2578 13.4861C12.5572 13.9342 12.717 14.461 12.717 14.9999C12.7161 15.7222 12.4288 16.4148 11.918 16.9256C11.4073 17.4363 10.7147 17.7237 9.99234 17.7245ZM29.0625 24.4627H20.6358C20.4203 23.4278 19.8549 22.4987 19.0347 21.8317C18.2145 21.1647 17.1896 20.8006 16.1325 20.8006C15.0753 20.8006 14.0504 21.1647 13.2303 21.8317C12.4101 22.4987 11.8447 23.4278 11.6292 24.4627H0.9375C0.68886 24.4627 0.450403 24.5615 0.274587 24.7373C0.0987721 24.9131 0 25.1516 0 25.4002C0 25.6489 0.0987721 25.8873 0.274587 26.0632C0.450403 26.239 0.68886 26.3377 0.9375 26.3377H11.6292C11.8447 27.3727 12.4101 28.3018 13.2303 28.9688C14.0504 29.6358 15.0753 29.9999 16.1325 29.9999C17.1896 29.9999 18.2145 29.6358 19.0347 28.9688C19.8549 28.3018 20.4203 27.3727 20.6358 26.3377H29.0625C29.3111 26.3377 29.5496 26.239 29.7254 26.0632C29.9012 25.8873 30 25.6489 30 25.4002C30 25.1516 29.9012 24.9131 29.7254 24.7373C29.5496 24.5615 29.3111 24.4627 29.0625 24.4627ZM16.1324 28.1249C15.5936 28.1249 15.0669 27.9651 14.6188 27.6657C14.1708 27.3664 13.8215 26.9409 13.6153 26.4431C13.4091 25.9453 13.3551 25.3975 13.4601 24.869C13.5652 24.3405 13.8246 23.855 14.2056 23.4739C14.5865 23.0929 15.072 22.8333 15.6004 22.7281C16.1289 22.6229 16.6767 22.6767 17.1746 22.8828C17.6724 23.0889 18.098 23.438 18.3975 23.886C18.697 24.3339 18.8569 24.8606 18.857 25.3995V25.401C18.856 26.1232 18.5686 26.8156 18.0579 27.3262C17.5471 27.8368 16.8547 28.124 16.1324 28.1249Z" fill="white"/>
</g>
<defs>
<clipPath id="clip0_1_80">
<rect width="30" height="30" fill="white"/>
</clipPath>
</defs>
</svg>
